<?xml version="1.0" encoding="UTF-8"?>
<svg id="Layer_2" data-name="Layer 2" xmlns="http://www.w3.org/2000/svg" xmlns:xlink="http://www.w3.org/1999/xlink" viewBox="0 0 725.74 197">
  <defs>
    <style>
      .cls-1 {
        fill: url(#linear-gradient);
      }

      .cls-1, .cls-2 {
        stroke-width: 0px;
      }

      .cls-2 {
        fill: #c56cff;
      }
    </style>
    <linearGradient id="linear-gradient" x1="0" y1="98.5" x2="725.74" y2="98.5" gradientUnits="userSpaceOnUse">
      <stop offset="0" stop-color="#ad49e2"/>
      <stop offset=".99" stop-color="#b4aeff"/>
    </linearGradient>
  </defs>
  <g id="Layer_2-2" data-name="Layer 2">
    <g>
      <g>
        <polygon class="cls-2" points="526.78 0 518.06 11.9 526.49 23.51 535.41 12.13 526.78 0"/>
        <polygon class="cls-2" points="12.33 47.38 0 62.87 10.69 78.9 23.25 64.12 12.33 47.38"/>
        <path class="cls-2" d="M505.54,8.3c-6.51-.61-13.3,2.09-17.45,7.13-4.15,5.04-5.47,12.34-3.16,18.46,2.31,6.12,8.27,10.75,14.79,11.28,6.51.54,13.23-3.16,16.09-9.04-6.45.89-13.26-3.15-15.57-9.24-2.31-6.09.1-13.63,5.51-17.25l1.51-1.11-1.72-.23h0Z"/>
        <path class="cls-2" d="M139.28,127.43c1.06,0,2-.35,2.82-1.06l1.22-.92c0,.51-.57,1.31-1.68,2.43s-2.37,2.36-3.81,3.72c-1.42,1.36-2.78,2.83-4.11,4.41-1.31,1.58-2.18,3.12-2.59,4.64l-9.12-8.52c-.71-.51-1.42-.96-2.13-1.36-1.61-.71-3.24-.6-4.87.3.6-.71,1.26-1.26,1.98-1.66.6-.41,1.35-.76,2.2-1.06s1.81-.35,2.82-.16V46.1l-14.75-5.63v48.05c.19,2.23,1.36,3.7,3.49,4.41l2.13.76-2.13.76c-1.01.3-1.81.87-2.36,1.68-.57.81-.94,1.72-1.13,2.73v26.9l.6.6c.81.71,1.75,1.06,2.82,1.06s2-.35,2.82-1.06l1.22-.92c0,.51-.57,1.31-1.68,2.43-1.12,1.12-2.37,2.36-3.81,3.72-1.42,1.36-2.78,2.83-4.11,4.41-1.31,1.58-2.18,3.12-2.59,4.64l-9.12-8.52c-.71-.51-1.42-.96-2.13-1.36-1.63-.71-3.24-.6-4.87.3.6-.71,1.26-1.26,1.98-1.66.6-.41,1.35-.76,2.2-1.06s1.81-.35,2.82-.16v-30.11c-.51-1.82-1.63-3.05-3.35-3.65l-1.98-.76,1.98-.76c1.72-.6,2.83-1.82,3.35-3.65v-43.18l-14.75-5.63v95.62c1.52.41,2.78.92,3.81,1.52,1.01.6,1.82,1.22,2.43,1.82.71.71,1.22,1.52,1.52,2.43-2.04-1.22-4.18-1.49-6.46-.83s-4.41,2.05-6.38,4.18c-1.98,2.13-3.6,4.94-4.87,8.43s-1.9,7.53-1.9,12.08c.19-.11.51-.16.92-.16.81,0,1.49.34,2.05.99s.78,1.4.69,2.2c-.21,1.42-1.01,2.23-2.43,2.43-.81.11-1.54-.12-2.2-.69-.66-.55-.99-1.24-.99-2.05v-70.38c-.51-1.82-1.61-3.05-3.35-3.65l-1.98-.76,1.98-.76c1.72-.6,2.83-1.82,3.35-3.65v-38.47c0-2.13-.81-3.9-2.43-5.31l-6.54-5.63c-.71-.6-1.47-.89-2.28-.83-.81.05-1.52.34-2.13.83l-1.06,1.06c-.81.81-1.63,1.65-2.43,2.51-.81.87-1.63,1.75-2.43,2.66-1.42,1.72-2.89,3.75-4.41,6.07-.3.51-.6,1.06-.92,1.68l-.92,1.82c-.21.51-.41,1.06-.6,1.66-.21.6-.41,1.28-.6,1.98-.21.6-.35,1.22-.46,1.82s-.21,1.28-.3,1.98v2.13l.16.16v.6c0,.41.05.71.16.92l.46,1.82c.19.41.3.66.3.76l.3.46c0,.11.02.18.07.23.05.05.07.12.07.23.6,1.01,1.42,1.88,2.43,2.59,1.01.81,2.07,1.28,3.19,1.36,1.01.3,2.18.35,3.49.16,1.12-.11,2.16-.35,3.12-.76s1.84-.92,2.66-1.52c1.52-1.22,2.69-2.53,3.49-3.95.19-.41.35-.76.46-1.06s.25-.66.46-1.06c.3-.6.46-1.22.46-1.82.19-.5.3-.99.3-1.43s.05-.83.16-1.13v-1.06,1.06c0,.3-.04.69-.07,1.13-.05.46-.12.94-.23,1.43-.21.81-.35,1.47-.46,1.98-.21.3-.35.64-.46.99s-.25.69-.46.99c-.41.81-.89,1.58-1.43,2.28-.57.71-1.24,1.36-2.05,1.98-1.52,1.22-3.49,2.07-5.93,2.59-1.22.21-2.37.16-3.49-.16-1.31-.19-2.48-.66-3.49-1.36-.51-.41-1.01-.83-1.52-1.29s-.92-.99-1.22-1.59c-.11-.11-.16-.18-.16-.23s-.05-.12-.16-.23l-.16-.3-.46-.92c-.11-.41-.21-.76-.3-1.06-.11-.3-.21-.6-.3-.92,0-.51-.05-.87-.16-1.06v-.76l-.16-.16v-2.13c0-.71.05-1.36.16-1.98.11-.6.25-1.28.46-1.98.19-.71.41-1.36.6-1.98.19-.6.41-1.22.6-1.82.3-.71.6-1.35.92-1.9.3-.55.6-1.13.92-1.75.71-1.12,1.42-2.2,2.13-3.26s1.47-2.11,2.28-3.12c.81-1.01,1.59-1.98,2.36-2.89.76-.92,1.54-1.77,2.36-2.59s1.59-1.59,2.36-2.36c.76-.76,1.54-1.45,2.36-2.05,2.83-2.64,5.31-4.71,7.46-6.23,1.01-.81,1.72-1.36,2.13-1.66.19-.11.41-.25.6-.46l.16-.16.6.92,11.41,10.64c1.82-1.52,3.28-2.96,4.34-4.34,1.06-1.36,1.88-2.59,2.43-3.65s1.04-2.25,1.45-3.58c.6.92,1.47,1.63,2.59,2.13l19.92,7.6c2.64-2.64,4.29-4.89,4.94-6.77s1.04-2.87,1.13-2.96c.6.92,1.47,1.63,2.59,2.13l20.23,7.76c1.72.41,3.29.46,4.71.16,1.12-.19,2.18-.71,3.19-1.52s1.52-2.13,1.52-3.95c.3,1.42.19,2.8-.3,4.11-.51,1.12-1.42,2.36-2.75,3.72-1.31,1.36-3.45,2.6-6.38,3.72v46.37c.51,1.82,1.61,3.05,3.35,3.65l2.13.76-2.13.76c-1.72.6-2.83,1.82-3.35,3.65v27.66l.6.6c.81.71,1.75,1.06,2.82,1.06v.07Z"/>
        <path class="cls-2" d="M174.63,125.3c0,.51-.55,1.31-1.66,2.43s-2.41,2.39-3.88,3.81-2.87,2.9-4.18,4.48-2.18,3.12-2.59,4.64l-8.96-8.52v-33.9c0-1.12-.35-2.16-1.06-3.12-.71-.96-1.63-1.54-2.75-1.75v-.16c2.53-.71,3.81-2.32,3.81-4.87v-22.65c-.71-.11-1.42-.35-2.13-.76-.6-.3-1.22-.66-1.82-1.06s-1.12-.96-1.52-1.66l8.06-12.17c2.64,2.75,4.89,4.66,6.77,5.77,1.88,1.12,3.42,1.77,4.64,1.98,1.42.3,2.64.21,3.65-.3-.3.6-.66,1.12-1.06,1.52-.3.41-.71.83-1.22,1.29-.51.46-1.01.83-1.52,1.13v26.9c0,1.12.34,2.13.99,3.05.66.9,1.54,1.52,2.66,1.82-1.12.3-2,.94-2.66,1.9-.66.97-.99,2-.99,3.12v27.36l.6.6c.81.71,1.75,1.1,2.82,1.13,1.06.05,2-.28,2.82-.99l1.22-1.06-.02.04ZM168.39,35.31l-8.2-8.2-8.22,8.2,8.22,8.2s8.2-8.2,8.2-8.2Z"/>
        <path class="cls-2" d="M225.78,91.56c.66.92,1.54,1.52,2.66,1.82-1.12.3-2,.92-2.66,1.82s-.99,1.93-.99,3.05v27.66c0,4.76-1.12,8.64-3.35,11.64s-4.82,5.37-7.76,7.14-5.84,2.99-8.75,3.65c-2.89.66-4.94.99-6.16.99,2.23-.21,4.25-1.01,6.07-2.43,1.52-1.22,2.9-3.1,4.18-5.63s1.9-6.07,1.9-10.64v-62.02l-14.75-6.23v63.41l.6.6c.81.71,1.75,1.1,2.82,1.13,1.06.05,2-.28,2.82-.99l1.22-1.06c0,.51-.55,1.31-1.66,2.43s-2.39,2.37-3.81,3.81c-1.42,1.42-2.78,2.9-4.11,4.48-1.31,1.58-2.18,3.12-2.59,4.64l-9.12-8.66v-33.9c0-2.53-1.28-4.16-3.81-4.87,2.53-.71,3.81-2.34,3.81-4.87v-22.95c-.71-.11-1.42-.35-2.13-.76-.6-.3-1.22-.66-1.82-1.06s-1.12-.96-1.52-1.68l8.06-12.17c.92,1.22,1.93,2.37,3.05,3.49s2.23,2.11,3.35,2.96c1.12.87,2.18,1.52,3.19,1.98s1.88.69,2.59.69l4.57-6.07c.81-1.12,1.61-2.23,2.43-3.35l19.3,8.96,1.06.46c.81.3,1.58.41,2.28.3.6-.11,1.24-.37,1.9-.83.66-.46,1.19-1.35,1.59-2.66.11,1.22-.05,2.34-.46,3.35-.3.81-.87,1.63-1.66,2.43s-1.93,1.36-3.35,1.66v25.24c0,1.12.34,2.13.99,3.05l.04.02Z"/>
        <path class="cls-2" d="M288.19,125.3c0,.51-.57,1.31-1.68,2.43s-2.37,2.39-3.81,3.81-2.78,2.9-4.11,4.48c-1.31,1.58-2.18,3.12-2.59,4.64l-9.12-9.42c-2.13,2.23-3.6,4.34-4.41,6.31-.81,1.98-1.22,3.01-1.22,3.12l-1.06-.6-20.53-7.9-1.06-.3c-.81-.3-1.58-.41-2.28-.3-.6.11-1.24.37-1.9.83-.66.46-1.19,1.35-1.59,2.66-.11-1.22.05-2.34.46-3.35.3-.81.83-1.61,1.59-2.43s1.9-1.36,3.42-1.66v-29.65c-.21-2.34-1.42-3.75-3.65-4.25h-.16l.16-.16c2.23-.51,3.45-1.93,3.65-4.25v-22.95c3.95-.41,7.17-1.45,9.65-3.12,2.48-1.68,4.46-3.47,5.93-5.4,1.47-1.93,2.76-4.41,3.88-7.46l1.22.6,7.9,3.05v-19c-.71-.19-1.42-.51-2.13-.92-.6-.3-1.22-.66-1.82-1.06-.6-.41-1.12-.96-1.52-1.68l8.06-12.17c2.64,2.75,4.87,4.69,6.69,5.86s3.4,1.86,4.71,2.05c1.42.3,2.69.16,3.81-.46-.3.6-.66,1.12-1.06,1.52s-.87.83-1.36,1.29c-.51.46-1.01.83-1.52,1.13v58.53c.11,1.12.48,2.07,1.13,2.89.66.81,1.54,1.31,2.66,1.52v.16c-1.12.21-2.04.78-2.75,1.75-.71.97-1.06,2-1.06,3.12v27.06l.76.6c.81.71,1.72,1.1,2.75,1.13,1.01.05,1.93-.28,2.75-.99l1.22-1.06h0ZM266.9,68.91l-14.75-5.77v59l14.75,5.63v-58.85Z"/>
        <path class="cls-2" d="M420.3,119.99c0,2.04.76,3.65,2.28,4.87-1.93-.11-3.86.21-5.77.92-1.93.71-3.77,1.65-5.54,2.82-1.77,1.17-3.45,2.46-5.01,3.88-1.58,1.42-2.94,2.71-4.11,3.88s-2.46,2.6-3.88,4.34c-3.24-1.42-6.18-2.75-8.82-3.95-2.34-1.01-4.59-2-6.77-2.96s-3.63-1.59-4.34-1.9c-2.53,2.13-4.59,4.11-6.16,5.93s-2.41,2.78-2.51,2.89c-3.86-1.63-7.24-3.1-10.18-4.41-1.31-.51-2.57-1.04-3.72-1.59-1.17-.57-2.25-1.1-3.26-1.59-1.12-.51-2.18-.96-3.19-1.36-3.35-1.82-6.59-3.01-9.72-3.58-3.13-.55-5.93-.51-8.36.16-2.43.66-4.39,1.88-5.86,3.65s-2.2,4.07-2.2,6.93c0,3.24.51,5.77,1.52,7.6,1.01,1.82,2.18,3.24,3.49,4.25,1.42,1.12,3.1,1.88,5.01,2.28-1.72,0-3.29-.43-4.71-1.29s-2.69-1.95-3.81-3.26-1.98-2.82-2.59-4.48-.92-3.26-.92-4.78c0-2.83.48-5.7,1.45-8.59.96-2.89,2.53-5.42,4.71-7.6,2.18-2.18,5.07-3.83,8.66-4.94,3.6-1.12,8.02-1.36,13.3-.76v-18.4c-.51-1.93-1.77-3.29-3.81-4.11l-2.28-.76,2.28-.6c2.02-.81,3.29-2.23,3.81-4.25v-38.31c0-2.13-.81-3.9-2.43-5.31l-6.54-5.63c-.71-.6-1.47-.89-2.28-.83-.81.05-1.52.34-2.13.83l-1.06,1.06c-.81.81-1.63,1.65-2.43,2.51-.81.87-1.63,1.75-2.43,2.66-1.42,1.72-2.89,3.75-4.41,6.07-.3.51-.6,1.06-.92,1.68l-.92,1.82c-.21.51-.41,1.06-.6,1.66-.21.6-.41,1.28-.6,1.98-.21.6-.35,1.22-.46,1.82s-.21,1.28-.3,1.98v2.13l.16.16v.6c0,.41.05.71.16.92l.46,1.82c.19.41.3.66.3.76l.3.46c0,.11.02.18.07.23.05.05.07.12.07.23.6,1.01,1.42,1.88,2.43,2.59,1.01.81,2.07,1.28,3.19,1.36,1.01.3,2.18.35,3.49.16,1.12-.11,2.16-.35,3.12-.76s1.84-.92,2.66-1.52c1.52-1.22,2.69-2.53,3.49-3.95.19-.41.35-.76.46-1.06s.25-.66.46-1.06c.3-.6.46-1.22.46-1.82.19-.5.3-.99.3-1.43s.05-.83.16-1.13v-1.06,1.06c0,.3-.04.69-.07,1.13-.05.46-.12.94-.23,1.43-.21.81-.35,1.47-.46,1.98-.21.3-.35.64-.46.99s-.25.69-.46.99c-.41.81-.89,1.58-1.43,2.28-.57.71-1.24,1.36-2.05,1.98-1.52,1.22-3.49,2.07-5.93,2.59-1.22.21-2.37.16-3.49-.16-1.31-.19-2.48-.66-3.49-1.36-.51-.41-1.01-.83-1.52-1.29-.51-.46-.92-.99-1.22-1.59-.11-.11-.16-.18-.16-.23s-.05-.12-.16-.23l-.16-.3-.46-.92c-.11-.41-.21-.76-.3-1.06-.11-.3-.21-.6-.3-.92,0-.51-.05-.87-.16-1.06v-.76l-.16-.16v-2.13c0-.71.05-1.36.16-1.98.11-.6.25-1.28.46-1.98.19-.71.41-1.36.6-1.98.19-.6.41-1.22.6-1.82.3-.71.6-1.35.92-1.9.3-.55.6-1.13.92-1.75.71-1.12,1.42-2.2,2.13-3.26.71-1.06,1.47-2.11,2.28-3.12.81-1.01,1.59-1.98,2.36-2.89.76-.92,1.54-1.77,2.36-2.59s1.59-1.59,2.36-2.36,1.54-1.45,2.36-2.05c2.83-2.64,5.31-4.71,7.46-6.23,1.01-.81,1.72-1.36,2.13-1.66.19-.11.41-.25.6-.46l.16-.16.6.92,13.83,12.77v81.95l14.75,5.63v-28.43c-.21-2.43-1.52-4.06-3.95-4.87l-2.28-.76,2.28-.6c1.12-.41,2.02-1.04,2.73-1.9s1.12-1.84,1.22-2.96v-45.91c-.71-.19-1.42-.51-2.13-.92-.6-.3-1.22-.66-1.82-1.06s-1.12-.96-1.52-1.66l8.06-12.17c2.64,2.73,4.87,4.69,6.69,5.84,1.82,1.17,3.4,1.86,4.71,2.05,1.42.3,2.69.16,3.81-.46-.3.6-.66,1.12-1.06,1.52s-.87.83-1.36,1.29c-.51.46-1.01.83-1.52,1.13v50.64c.3,2.04,1.47,3.4,3.49,4.11l1.98.76-1.98.76c-2.04.71-3.19,2.13-3.49,4.25v21.29c0,1.01.19,1.88.6,2.59l14.13,5.63V42.61c-.71-.19-1.42-.51-2.13-.92-.6-.3-1.22-.66-1.82-1.06s-1.12-.96-1.52-1.66l8.06-12.17c2.64,2.73,4.87,4.69,6.69,5.84,1.82,1.17,3.4,1.86,4.71,2.05,1.42.3,2.69.16,3.81-.46-.3.6-.66,1.12-1.06,1.52s-.87.83-1.36,1.29c-.51.46-1.01.83-1.52,1.13v50.18c.19,2.34,1.36,3.86,3.49,4.55l2.13.76-2.13.76c-2.13.81-3.29,2.34-3.49,4.57v20.99h0Z"/>
        <path class="cls-2" d="M477.08,91.4c.66.9,1.54,1.52,2.66,1.82-1.12.3-2,.92-2.66,1.82s-.99,1.93-.99,3.05v27.66c0,4.76-1.12,8.64-3.35,11.64s-4.82,5.37-7.76,7.14-5.84,2.99-8.75,3.65c-2.89.66-4.94.99-6.16.99,2.23-.21,4.25-1.01,6.07-2.43,1.52-1.22,2.9-3.1,4.18-5.63s1.9-6.07,1.9-10.64v-62.02l-14.75-5.63v62.79l.6.6c.81.71,1.75,1.1,2.82,1.13,1.06.05,2-.28,2.82-.99l1.22-1.06c0,.51-.55,1.31-1.66,2.43l-3.81,3.81c-1.42,1.42-2.78,2.9-4.11,4.48-1.31,1.58-2.18,3.12-2.59,4.64l-9.12-8.52v-33.9c0-1.12-.35-2.16-1.06-3.12-.71-.96-1.63-1.59-2.75-1.9,2.53-.71,3.81-2.32,3.81-4.87v-53.35c-.71-.19-1.42-.51-2.13-.92-.6-.3-1.22-.66-1.82-1.06-.6-.41-1.12-.96-1.52-1.68l8.06-12.17c2.64,2.75,4.89,4.69,6.77,5.86s3.42,1.86,4.64,2.05c1.42.3,2.64.16,3.65-.46-.3.6-.66,1.12-1.06,1.52-.3.41-.71.83-1.22,1.29s-1.01.83-1.52,1.13v28.89c1.12-1.12,2-2.23,2.66-3.35s1.24-2.13,1.75-3.05c.51-1.12.92-2.13,1.22-3.05l1.06.46,20.53,7.9,1.06.46c.81.3,1.58.41,2.28.3.6-.11,1.24-.37,1.9-.83s1.19-1.35,1.59-2.66c.11,1.22-.05,2.34-.46,3.35-.3.81-.87,1.63-1.66,2.43s-1.93,1.36-3.35,1.68v25.24c0,1.12.34,2.13.99,3.05l.04.02Z"/>
        <path class="cls-2" d="M510.76,125.3c0,.51-.55,1.31-1.66,2.43s-2.41,2.39-3.88,3.81c-1.47,1.42-2.87,2.9-4.18,4.48s-2.18,3.12-2.59,4.64l-8.96-8.52v-33.9c0-1.12-.35-2.16-1.06-3.12-.71-.96-1.63-1.54-2.75-1.75v-.16c2.53-.71,3.81-2.32,3.81-4.87v-22.65c-.71-.11-1.42-.35-2.13-.76-.6-.3-1.22-.66-1.82-1.06s-1.12-.96-1.52-1.66l8.06-12.17c2.64,2.75,4.89,4.66,6.77,5.77s3.42,1.77,4.64,1.98c1.42.3,2.64.21,3.65-.3-.3.6-.66,1.12-1.06,1.52-.3.41-.71.83-1.22,1.29s-1.01.83-1.52,1.13v26.9c0,1.12.34,2.13.99,3.05.66.9,1.54,1.52,2.66,1.82-1.12.3-2,.94-2.66,1.9-.66.97-.99,2-.99,3.12v27.36l.6.6c.81.71,1.75,1.1,2.82,1.13,1.06.05,2-.28,2.82-.99l1.22-1.06-.02.04Z"/>
        <path class="cls-2" d="M566.39,55.98c.11,1.22-.05,2.34-.46,3.35-.3.81-.83,1.65-1.59,2.51s-1.9,1.4-3.42,1.59v5.17c0,1.72.87,2.94,2.59,3.65-3.13,0-5.51.69-7.12,2.05s-3.05,2.89-4.32,4.57c-1.26,1.68-2.55,3.19-3.86,4.57-1.31,1.36-3.22,2.05-5.76,2.05,2.16-.51,3.51-1.7,4.02-3.58.51-1.88.78-4.29.78-7.23v-5.77l-14.75-5.77v24.78c0,1.72.76,2.99,2.27,3.81,3.83,2.13,7.93,4.16,12.33,6.07,4.39,1.93,9,2.99,13.83,3.19v23.72c-3.84.41-7.01,1.43-9.55,3.12-2.53,1.66-4.52,3.47-5.99,5.4-1.47,1.93-2.75,4.41-3.86,7.46l-1.06-.6-20.46-7.9-1.2-.3c-.92-.3-1.68-.41-2.28-.3-.6.11-1.24.37-1.9.83s-1.13,1.35-1.45,2.66c-.11-1.22.05-2.34.46-3.35.3-.81.83-1.61,1.59-2.43s1.9-1.36,3.42-1.66v-7.9c0-1.82-.87-2.99-2.59-3.49,3.13,0,5.51-.69,7.12-2.05s3.05-2.89,4.32-4.57c1.26-1.66,2.55-3.22,3.86-4.64s3.22-2.13,5.76-2.13c-2,.51-3.28,1.7-3.83,3.58s-.81,4.29-.81,7.23v8.52l14.59,5.63.16-21.13c0-1.61-.46-3.12-1.36-4.48s-2.07-2.41-3.51-3.12c-1.63-.81-3.19-1.59-4.71-2.36-1.52-.76-2.99-1.49-4.41-2.2-2.94-1.61-5.63-3.01-8.06-4.18s-4.6-1.75-6.54-1.75v-22.19c3.84-.41,7.01-1.45,9.55-3.12,2.53-1.68,4.52-3.47,5.99-5.4,1.47-1.93,2.75-4.41,3.86-7.46l1.06.6,20.46,7.9,1.2.3c.9.3,1.66.43,2.28.37.6-.05,1.24-.34,1.9-.83.66-.51,1.13-1.42,1.45-2.73v-.07Z"/>
        <path class="cls-2" d="M617.03,88.36c0,1.12.32,2.13.99,3.05.66.9,1.54,1.52,2.66,1.82h.16c-2.53.71-3.81,2.34-3.81,4.87v26.14c-3.86.41-7.05,1.45-9.58,3.12-2.53,1.68-4.53,3.47-6,5.4-1.47,1.93-2.76,4.41-3.88,7.46l-1.06-.6-8.06-3.05v19.61l.6.6c.81.81,1.75,1.22,2.82,1.22s2-.35,2.82-1.06l1.22-1.06c0,.51-.57,1.31-1.68,2.43-1.12,1.12-2.37,2.37-3.81,3.81-1.42,1.42-2.78,2.9-4.11,4.48-1.31,1.58-2.18,3.12-2.59,4.64l-9.12-8.52v-31.47c-.21-.11-.55-.18-1.06-.23s-1.04,0-1.59.16c-.57.16-1.1.48-1.59.99s-.92,1.31-1.22,2.43c-.11-1.12.05-2.18.46-3.19.3-.81.83-1.65,1.59-2.51s1.9-1.45,3.42-1.75v-29.35c-.21-2.34-1.47-3.84-3.81-4.57h.16c1.12-.3,2-.92,2.66-1.82.66-.92.99-1.93.99-3.05v-22.81c-.71-.11-1.42-.35-2.13-.76-.6-.3-1.22-.66-1.82-1.06s-1.12-.96-1.52-1.68l8.06-12.17c1.82,2.53,3.98,4.69,6.46,6.46s4.39,2.66,5.7,2.66c.71-.92,1.47-1.93,2.28-3.05.81-1.12,1.58-2.16,2.28-3.12s1.58-2.05,2.59-3.28l19.16,8.96,1.22.46c.92.3,1.66.43,2.28.39s1.24-.34,1.9-.83c.66-.51,1.13-1.42,1.43-2.75.11,1.22-.05,2.34-.46,3.35-.3.81-.83,1.63-1.59,2.43-.76.81-1.9,1.36-3.42,1.66v25.15ZM603.2,127.43v-58.84l-14.75-6.23v59.3l14.75,5.77Z"/>
        <path class="cls-2" d="M656.56,116.18c3.13,0,5.53-.69,7.14-2.05s3.06-2.89,4.34-4.57c1.26-1.66,2.55-3.22,3.88-4.64,1.31-1.42,3.24-2.13,5.77-2.13-2.13.51-3.45,1.7-3.95,3.58-.51,1.88-.76,4.29-.76,7.23v11.1c-3.86.41-7.05,1.43-9.58,3.12-2.53,1.66-4.53,3.47-6,5.4s-2.76,4.41-3.88,7.46l-1.06-.6-20.53-7.9-1.22-.3c-.92-.3-1.68-.41-2.28-.3-.6.11-1.24.37-1.9.83s-1.13,1.35-1.45,2.66c-.11-1.22.05-2.34.46-3.35.3-.81.83-1.61,1.59-2.43s1.9-1.36,3.42-1.66v-29.05c0-2.53-1.28-4.16-3.81-4.87l.16-.16c1.12-.3,2-.92,2.66-1.82s.99-1.93.99-3.05v-22.35c3.84-.41,7.05-1.45,9.58-3.12,2.53-1.68,4.53-3.47,6-5.4,1.47-1.93,2.76-4.41,3.88-7.46l1.06.6,20.53,7.9,1.22.3c.92.3,1.66.43,2.28.37.6-.05,1.24-.34,1.9-.83.66-.51,1.13-1.42,1.43-2.73.11,1.22-.05,2.34-.46,3.35-.3.81-.83,1.65-1.59,2.51s-1.9,1.4-3.42,1.59v5.17c0,1.72.87,2.94,2.59,3.65-3.35,0-6.23,1.1-8.66,3.26-2.43,2.18-4.76,4.64-7,7.37s-4.53,5.3-6.93,7.69c-2.37,2.37-5.24,3.77-8.59,4.18v27.36l14.75,5.63v-8.06c0-1.82-.87-2.99-2.59-3.49h.02ZM644.39,63.12v29.79c1.61-.41,3.29-1.26,5.01-2.59,1.72-1.31,3.31-2.83,4.78-4.57,1.47-1.72,2.66-3.54,3.58-5.47s1.36-3.81,1.36-5.63v-5.77l-14.75-5.77.02.02Z"/>
        <path class="cls-2" d="M720.57,55.68c.81,0,1.82-.23,3.05-.69,1.22-.46,1.93-1.49,2.13-3.12-.11,2.75-.71,5.12-1.82,7.14-.92,1.82-2.3,3.47-4.18,4.94-1.88,1.47-4.48,2.2-7.83,2.2-1.42,0-2.8-.16-4.11-.46-1.31-.3-2.53-.66-3.65-1.06s-2.04-.78-2.75-1.13c-.71-.35-1.12-.58-1.22-.69v25.54c0,1.12.34,2.13.99,3.05.66.9,1.54,1.52,2.66,1.82-1.12.3-2,.94-2.66,1.9-.66.97-.99,2-.99,3.12v27.36l.6.6c.81.71,1.75,1.1,2.82,1.13,1.06.05,2-.28,2.82-.99l1.22-1.06c0,.51-.55,1.31-1.66,2.43s-2.41,2.39-3.88,3.81c-1.47,1.42-2.87,2.9-4.18,4.48s-2.18,3.12-2.59,4.64l-8.96-8.52v-33.9c0-1.12-.35-2.16-1.06-3.12-.71-.96-1.63-1.54-2.75-1.75v-.16c2.53-.71,3.81-2.32,3.81-4.87v-22.51c-.71-.19-1.42-.51-2.13-.92-.6-.3-1.22-.66-1.82-1.06s-1.12-.96-1.52-1.66l8.06-12.17c2.94,3.24,5.45,5.35,7.53,6.31,2.07.96,3.72,1.49,4.94,1.59.81-1.01,1.49-1.98,2.05-2.89.55-.92,1.04-1.77,1.43-2.59.41-.92.71-1.72.92-2.43,1.42,1.12,2.94,2.07,4.57,2.89,1.42.71,2.99,1.35,4.71,1.9s3.54.83,5.47.83l-.02.09Z"/>
        <polygon class="cls-2" points="68.36 179.69 62.07 188.53 68.4 197 74.84 188.51 68.36 179.69"/>
      </g>
      <g>
        <polygon class="cls-1" points="526.78 0 518.06 11.9 526.49 23.51 535.41 12.13 526.78 0"/>
        <polygon class="cls-1" points="12.33 47.38 0 62.87 10.69 78.9 23.25 64.12 12.33 47.38"/>
        <path class="cls-1" d="M505.54,8.3c-6.51-.61-13.3,2.09-17.45,7.13-4.15,5.04-5.47,12.34-3.16,18.46,2.31,6.12,8.27,10.75,14.79,11.28,6.51.54,13.23-3.16,16.09-9.04-6.45.89-13.26-3.15-15.57-9.24-2.31-6.09.1-13.63,5.51-17.25l1.51-1.11-1.72-.23h0Z"/>
        <path class="cls-1" d="M139.28,127.43c1.06,0,2-.35,2.82-1.06l1.22-.92c0,.51-.57,1.31-1.68,2.43s-2.37,2.36-3.81,3.72c-1.42,1.36-2.78,2.83-4.11,4.41-1.31,1.58-2.18,3.12-2.59,4.64l-9.12-8.52c-.71-.51-1.42-.96-2.13-1.36-1.61-.71-3.24-.6-4.87.3.6-.71,1.26-1.26,1.98-1.66.6-.41,1.35-.76,2.2-1.06s1.81-.35,2.82-.16V46.1l-14.75-5.63v48.05c.19,2.23,1.36,3.7,3.49,4.41l2.13.76-2.13.76c-1.01.3-1.81.87-2.36,1.68-.57.81-.94,1.72-1.13,2.73v26.9l.6.6c.81.71,1.75,1.06,2.82,1.06s2-.35,2.82-1.06l1.22-.92c0,.51-.57,1.31-1.68,2.43-1.12,1.12-2.37,2.36-3.81,3.72-1.42,1.36-2.78,2.83-4.11,4.41-1.31,1.58-2.18,3.12-2.59,4.64l-9.12-8.52c-.71-.51-1.42-.96-2.13-1.36-1.63-.71-3.24-.6-4.87.3.6-.71,1.26-1.26,1.98-1.66.6-.41,1.35-.76,2.2-1.06s1.81-.35,2.82-.16v-30.11c-.51-1.82-1.63-3.05-3.35-3.65l-1.98-.76,1.98-.76c1.72-.6,2.83-1.82,3.35-3.65v-43.18l-14.75-5.63v95.62c1.52.41,2.78.92,3.81,1.52,1.01.6,1.82,1.22,2.43,1.82.71.71,1.22,1.52,1.52,2.43-2.04-1.22-4.18-1.49-6.46-.83s-4.41,2.05-6.38,4.18c-1.98,2.13-3.6,4.94-4.87,8.43s-1.9,7.53-1.9,12.08c.19-.11.51-.16.92-.16.81,0,1.49.34,2.05.99s.78,1.4.69,2.2c-.21,1.42-1.01,2.23-2.43,2.43-.81.11-1.54-.12-2.2-.69-.66-.55-.99-1.24-.99-2.05v-70.38c-.51-1.82-1.61-3.05-3.35-3.65l-1.98-.76,1.98-.76c1.72-.6,2.83-1.82,3.35-3.65v-38.47c0-2.13-.81-3.9-2.43-5.31l-6.54-5.63c-.71-.6-1.47-.89-2.28-.83-.81.05-1.52.34-2.13.83l-1.06,1.06c-.81.81-1.63,1.65-2.43,2.51-.81.87-1.63,1.75-2.43,2.66-1.42,1.72-2.89,3.75-4.41,6.07-.3.51-.6,1.06-.92,1.68l-.92,1.82c-.21.51-.41,1.06-.6,1.66-.21.6-.41,1.28-.6,1.98-.21.6-.35,1.22-.46,1.82s-.21,1.28-.3,1.98v2.13l.16.16v.6c0,.41.05.71.16.92l.46,1.82c.19.41.3.66.3.76l.3.46c0,.11.02.18.07.23.05.05.07.12.07.23.6,1.01,1.42,1.88,2.43,2.59,1.01.81,2.07,1.28,3.19,1.36,1.01.3,2.18.35,3.49.16,1.12-.11,2.16-.35,3.12-.76s1.84-.92,2.66-1.52c1.52-1.22,2.69-2.53,3.49-3.95.19-.41.35-.76.46-1.06s.25-.66.46-1.06c.3-.6.46-1.22.46-1.82.19-.5.3-.99.3-1.43s.05-.83.16-1.13v-1.06,1.06c0,.3-.04.69-.07,1.13-.05.46-.12.94-.23,1.43-.21.81-.35,1.47-.46,1.98-.21.3-.35.64-.46.99s-.25.69-.46.99c-.41.81-.89,1.58-1.43,2.28-.57.71-1.24,1.36-2.05,1.98-1.52,1.22-3.49,2.07-5.93,2.59-1.22.21-2.37.16-3.49-.16-1.31-.19-2.48-.66-3.49-1.36-.51-.41-1.01-.83-1.52-1.29s-.92-.99-1.22-1.59c-.11-.11-.16-.18-.16-.23s-.05-.12-.16-.23l-.16-.3-.46-.92c-.11-.41-.21-.76-.3-1.06-.11-.3-.21-.6-.3-.92,0-.51-.05-.87-.16-1.06v-.76l-.16-.16v-2.13c0-.71.05-1.36.16-1.98.11-.6.25-1.28.46-1.98.19-.71.41-1.36.6-1.98.19-.6.41-1.22.6-1.82.3-.71.6-1.35.92-1.9.3-.55.6-1.13.92-1.75.71-1.12,1.42-2.2,2.13-3.26s1.47-2.11,2.28-3.12c.81-1.01,1.59-1.98,2.36-2.89.76-.92,1.54-1.77,2.36-2.59s1.59-1.59,2.36-2.36c.76-.76,1.54-1.45,2.36-2.05,2.83-2.64,5.31-4.71,7.46-6.23,1.01-.81,1.72-1.36,2.13-1.66.19-.11.41-.25.6-.46l.16-.16.6.92,11.41,10.64c1.82-1.52,3.28-2.96,4.34-4.34,1.06-1.36,1.88-2.59,2.43-3.65s1.04-2.25,1.45-3.58c.6.92,1.47,1.63,2.59,2.13l19.92,7.6c2.64-2.64,4.29-4.89,4.94-6.77s1.04-2.87,1.13-2.96c.6.92,1.47,1.63,2.59,2.13l20.23,7.76c1.72.41,3.29.46,4.71.16,1.12-.19,2.18-.71,3.19-1.52s1.52-2.13,1.52-3.95c.3,1.42.19,2.8-.3,4.11-.51,1.12-1.42,2.36-2.75,3.72-1.31,1.36-3.45,2.6-6.38,3.72v46.37c.51,1.82,1.61,3.05,3.35,3.65l2.13.76-2.13.76c-1.72.6-2.83,1.82-3.35,3.65v27.66l.6.6c.81.71,1.75,1.06,2.82,1.06v.07Z"/>
        <path class="cls-1" d="M174.63,125.3c0,.51-.55,1.31-1.66,2.43s-2.41,2.39-3.88,3.81-2.87,2.9-4.18,4.48-2.18,3.12-2.59,4.64l-8.96-8.52v-33.9c0-1.12-.35-2.16-1.06-3.12-.71-.96-1.63-1.54-2.75-1.75v-.16c2.53-.71,3.81-2.32,3.81-4.87v-22.65c-.71-.11-1.42-.35-2.13-.76-.6-.3-1.22-.66-1.82-1.06s-1.12-.96-1.52-1.66l8.06-12.17c2.64,2.75,4.89,4.66,6.77,5.77,1.88,1.12,3.42,1.77,4.64,1.98,1.42.3,2.64.21,3.65-.3-.3.6-.66,1.12-1.06,1.52-.3.41-.71.83-1.22,1.29-.51.46-1.01.83-1.52,1.13v26.9c0,1.12.34,2.13.99,3.05.66.9,1.54,1.52,2.66,1.82-1.12.3-2,.94-2.66,1.9-.66.97-.99,2-.99,3.12v27.36l.6.6c.81.71,1.75,1.1,2.82,1.13,1.06.05,2-.28,2.82-.99l1.22-1.06-.02.04ZM168.39,35.31l-8.2-8.2-8.22,8.2,8.22,8.2s8.2-8.2,8.2-8.2Z"/>
        <path class="cls-1" d="M225.78,91.56c.66.92,1.54,1.52,2.66,1.82-1.12.3-2,.92-2.66,1.82s-.99,1.93-.99,3.05v27.66c0,4.76-1.12,8.64-3.35,11.64s-4.82,5.37-7.76,7.14-5.84,2.99-8.75,3.65c-2.89.66-4.94.99-6.16.99,2.23-.21,4.25-1.01,6.07-2.43,1.52-1.22,2.9-3.1,4.18-5.63s1.9-6.07,1.9-10.64v-62.02l-14.75-6.23v63.41l.6.6c.81.71,1.75,1.1,2.82,1.13,1.06.05,2-.28,2.82-.99l1.22-1.06c0,.51-.55,1.31-1.66,2.43s-2.39,2.37-3.81,3.81c-1.42,1.42-2.78,2.9-4.11,4.48-1.31,1.58-2.18,3.12-2.59,4.64l-9.12-8.66v-33.9c0-2.53-1.28-4.16-3.81-4.87,2.53-.71,3.81-2.34,3.81-4.87v-22.95c-.71-.11-1.42-.35-2.13-.76-.6-.3-1.22-.66-1.82-1.06s-1.12-.96-1.52-1.68l8.06-12.17c.92,1.22,1.93,2.37,3.05,3.49s2.23,2.11,3.35,2.96c1.12.87,2.18,1.52,3.19,1.98s1.88.69,2.59.69l4.57-6.07c.81-1.12,1.61-2.23,2.43-3.35l19.3,8.96,1.06.46c.81.3,1.58.41,2.28.3.6-.11,1.24-.37,1.9-.83.66-.46,1.19-1.35,1.59-2.66.11,1.22-.05,2.34-.46,3.35-.3.81-.87,1.63-1.66,2.43s-1.93,1.36-3.35,1.66v25.24c0,1.12.34,2.13.99,3.05l.04.02Z"/>
        <path class="cls-1" d="M288.19,125.3c0,.51-.57,1.31-1.68,2.43s-2.37,2.39-3.81,3.81-2.78,2.9-4.11,4.48c-1.31,1.58-2.18,3.12-2.59,4.64l-9.12-9.42c-2.13,2.23-3.6,4.34-4.41,6.31-.81,1.98-1.22,3.01-1.22,3.12l-1.06-.6-20.53-7.9-1.06-.3c-.81-.3-1.58-.41-2.28-.3-.6.11-1.24.37-1.9.83-.66.46-1.19,1.35-1.59,2.66-.11-1.22.05-2.34.46-3.35.3-.81.83-1.61,1.59-2.43s1.9-1.36,3.42-1.66v-29.65c-.21-2.34-1.42-3.75-3.65-4.25h-.16l.16-.16c2.23-.51,3.45-1.93,3.65-4.25v-22.95c3.95-.41,7.17-1.45,9.65-3.12,2.48-1.68,4.46-3.47,5.93-5.4,1.47-1.93,2.76-4.41,3.88-7.46l1.22.6,7.9,3.05v-19c-.71-.19-1.42-.51-2.13-.92-.6-.3-1.22-.66-1.82-1.06-.6-.41-1.12-.96-1.52-1.68l8.06-12.17c2.64,2.75,4.87,4.69,6.69,5.86s3.4,1.86,4.71,2.05c1.42.3,2.69.16,3.81-.46-.3.6-.66,1.12-1.06,1.52s-.87.83-1.36,1.29c-.51.46-1.01.83-1.52,1.13v58.53c.11,1.12.48,2.07,1.13,2.89.66.81,1.54,1.31,2.66,1.52v.16c-1.12.21-2.04.78-2.75,1.75-.71.97-1.06,2-1.06,3.12v27.06l.76.6c.81.71,1.72,1.1,2.75,1.13,1.01.05,1.93-.28,2.75-.99l1.22-1.06h0ZM266.9,68.91l-14.75-5.77v59l14.75,5.63v-58.85Z"/>
        <path class="cls-1" d="M420.3,119.99c0,2.04.76,3.65,2.28,4.87-1.93-.11-3.86.21-5.77.92-1.93.71-3.77,1.65-5.54,2.82-1.77,1.17-3.45,2.46-5.01,3.88-1.58,1.42-2.94,2.71-4.11,3.88s-2.46,2.6-3.88,4.34c-3.24-1.42-6.18-2.75-8.82-3.95-2.34-1.01-4.59-2-6.77-2.96s-3.63-1.59-4.34-1.9c-2.53,2.13-4.59,4.11-6.16,5.93s-2.41,2.78-2.51,2.89c-3.86-1.63-7.24-3.1-10.18-4.41-1.31-.51-2.57-1.04-3.72-1.59-1.17-.57-2.25-1.1-3.26-1.59-1.12-.51-2.18-.96-3.19-1.36-3.35-1.82-6.59-3.01-9.72-3.58-3.13-.55-5.93-.51-8.36.16-2.43.66-4.39,1.88-5.86,3.65s-2.2,4.07-2.2,6.93c0,3.24.51,5.77,1.52,7.6,1.01,1.82,2.18,3.24,3.49,4.25,1.42,1.12,3.1,1.88,5.01,2.28-1.72,0-3.29-.43-4.71-1.29s-2.69-1.95-3.81-3.26-1.98-2.82-2.59-4.48-.92-3.26-.92-4.78c0-2.83.48-5.7,1.45-8.59.96-2.89,2.53-5.42,4.71-7.6,2.18-2.18,5.07-3.83,8.66-4.94,3.6-1.12,8.02-1.36,13.3-.76v-18.4c-.51-1.93-1.77-3.29-3.81-4.11l-2.28-.76,2.28-.6c2.02-.81,3.29-2.23,3.81-4.25v-38.31c0-2.13-.81-3.9-2.43-5.31l-6.54-5.63c-.71-.6-1.47-.89-2.28-.83-.81.05-1.52.34-2.13.83l-1.06,1.06c-.81.81-1.63,1.65-2.43,2.51-.81.87-1.63,1.75-2.43,2.66-1.42,1.72-2.89,3.75-4.41,6.07-.3.51-.6,1.06-.92,1.68l-.92,1.82c-.21.51-.41,1.06-.6,1.66-.21.6-.41,1.28-.6,1.98-.21.6-.35,1.22-.46,1.82s-.21,1.28-.3,1.98v2.13l.16.16v.6c0,.41.05.71.16.92l.46,1.82c.19.41.3.66.3.76l.3.46c0,.11.02.18.07.23.05.05.07.12.07.23.6,1.01,1.42,1.88,2.43,2.59,1.01.81,2.07,1.28,3.19,1.36,1.01.3,2.18.35,3.49.16,1.12-.11,2.16-.35,3.12-.76s1.84-.92,2.66-1.52c1.52-1.22,2.69-2.53,3.49-3.95.19-.41.35-.76.46-1.06s.25-.66.46-1.06c.3-.6.46-1.22.46-1.82.19-.5.3-.99.3-1.43s.05-.83.16-1.13v-1.06,1.06c0,.3-.04.69-.07,1.13-.05.46-.12.94-.23,1.43-.21.81-.35,1.47-.46,1.98-.21.3-.35.64-.46.99s-.25.69-.46.99c-.41.81-.89,1.58-1.43,2.28-.57.71-1.24,1.36-2.05,1.98-1.52,1.22-3.49,2.07-5.93,2.59-1.22.21-2.37.16-3.49-.16-1.31-.19-2.48-.66-3.49-1.36-.51-.41-1.01-.83-1.52-1.29-.51-.46-.92-.99-1.22-1.59-.11-.11-.16-.18-.16-.23s-.05-.12-.16-.23l-.16-.3-.46-.92c-.11-.41-.21-.76-.3-1.06-.11-.3-.21-.6-.3-.92,0-.51-.05-.87-.16-1.06v-.76l-.16-.16v-2.13c0-.71.05-1.36.16-1.98.11-.6.25-1.28.46-1.98.19-.71.41-1.36.6-1.98.19-.6.41-1.22.6-1.82.3-.71.6-1.35.92-1.9.3-.55.6-1.13.92-1.75.71-1.12,1.42-2.2,2.13-3.26.71-1.06,1.47-2.11,2.28-3.12.81-1.01,1.59-1.98,2.36-2.89.76-.92,1.54-1.77,2.36-2.59s1.59-1.59,2.36-2.36,1.54-1.45,2.36-2.05c2.83-2.64,5.31-4.71,7.46-6.23,1.01-.81,1.72-1.36,2.13-1.66.19-.11.41-.25.6-.46l.16-.16.6.92,13.83,12.77v81.95l14.75,5.63v-28.43c-.21-2.43-1.52-4.06-3.95-4.87l-2.28-.76,2.28-.6c1.12-.41,2.02-1.04,2.73-1.9s1.12-1.84,1.22-2.96v-45.91c-.71-.19-1.42-.51-2.13-.92-.6-.3-1.22-.66-1.82-1.06s-1.12-.96-1.52-1.66l8.06-12.17c2.64,2.73,4.87,4.69,6.69,5.84,1.82,1.17,3.4,1.86,4.71,2.05,1.42.3,2.69.16,3.81-.46-.3.6-.66,1.12-1.06,1.52s-.87.83-1.36,1.29c-.51.46-1.01.83-1.52,1.13v50.64c.3,2.04,1.47,3.4,3.49,4.11l1.98.76-1.98.76c-2.04.71-3.19,2.13-3.49,4.25v21.29c0,1.01.19,1.88.6,2.59l14.13,5.63V42.61c-.71-.19-1.42-.51-2.13-.92-.6-.3-1.22-.66-1.82-1.06s-1.12-.96-1.52-1.66l8.06-12.17c2.64,2.73,4.87,4.69,6.69,5.84,1.82,1.17,3.4,1.86,4.71,2.05,1.42.3,2.69.16,3.81-.46-.3.6-.66,1.12-1.06,1.52s-.87.83-1.36,1.29c-.51.46-1.01.83-1.52,1.13v50.18c.19,2.34,1.36,3.86,3.49,4.55l2.13.76-2.13.76c-2.13.81-3.29,2.34-3.49,4.57v20.99h0Z"/>
        <path class="cls-1" d="M477.08,91.4c.66.9,1.54,1.52,2.66,1.82-1.12.3-2,.92-2.66,1.82s-.99,1.93-.99,3.05v27.66c0,4.76-1.12,8.64-3.35,11.64s-4.82,5.37-7.76,7.14-5.84,2.99-8.75,3.65c-2.89.66-4.94.99-6.16.99,2.23-.21,4.25-1.01,6.07-2.43,1.52-1.22,2.9-3.1,4.18-5.63s1.9-6.07,1.9-10.64v-62.02l-14.75-5.63v62.79l.6.6c.81.71,1.75,1.1,2.82,1.13,1.06.05,2-.28,2.82-.99l1.22-1.06c0,.51-.55,1.31-1.66,2.43l-3.81,3.81c-1.42,1.42-2.78,2.9-4.11,4.48-1.31,1.58-2.18,3.12-2.59,4.64l-9.12-8.52v-33.9c0-1.12-.35-2.16-1.06-3.12-.71-.96-1.63-1.59-2.75-1.9,2.53-.71,3.81-2.32,3.81-4.87v-53.35c-.71-.19-1.42-.51-2.13-.92-.6-.3-1.22-.66-1.82-1.06-.6-.41-1.12-.96-1.52-1.68l8.06-12.17c2.64,2.75,4.89,4.69,6.77,5.86s3.42,1.86,4.64,2.05c1.42.3,2.64.16,3.65-.46-.3.6-.66,1.12-1.06,1.52-.3.41-.71.83-1.22,1.29s-1.01.83-1.52,1.13v28.89c1.12-1.12,2-2.23,2.66-3.35s1.24-2.13,1.75-3.05c.51-1.12.92-2.13,1.22-3.05l1.06.46,20.53,7.9,1.06.46c.81.3,1.58.41,2.28.3.6-.11,1.24-.37,1.9-.83s1.19-1.35,1.59-2.66c.11,1.22-.05,2.34-.46,3.35-.3.81-.87,1.63-1.66,2.43s-1.93,1.36-3.35,1.68v25.24c0,1.12.34,2.13.99,3.05l.04.02Z"/>
        <path class="cls-1" d="M510.76,125.3c0,.51-.55,1.31-1.66,2.43s-2.41,2.39-3.88,3.81c-1.47,1.42-2.87,2.9-4.18,4.48s-2.18,3.12-2.59,4.64l-8.96-8.52v-33.9c0-1.12-.35-2.16-1.06-3.12-.71-.96-1.63-1.54-2.75-1.75v-.16c2.53-.71,3.81-2.32,3.81-4.87v-22.65c-.71-.11-1.42-.35-2.13-.76-.6-.3-1.22-.66-1.82-1.06s-1.12-.96-1.52-1.66l8.06-12.17c2.64,2.75,4.89,4.66,6.77,5.77s3.42,1.77,4.64,1.98c1.42.3,2.64.21,3.65-.3-.3.6-.66,1.12-1.06,1.52-.3.41-.71.83-1.22,1.29s-1.01.83-1.52,1.13v26.9c0,1.12.34,2.13.99,3.05.66.9,1.54,1.52,2.66,1.82-1.12.3-2,.94-2.66,1.9-.66.97-.99,2-.99,3.12v27.36l.6.6c.81.71,1.75,1.1,2.82,1.13,1.06.05,2-.28,2.82-.99l1.22-1.06-.02.04Z"/>
        <path class="cls-1" d="M566.39,55.98c.11,1.22-.05,2.34-.46,3.35-.3.81-.83,1.65-1.59,2.51s-1.9,1.4-3.42,1.59v5.17c0,1.72.87,2.94,2.59,3.65-3.13,0-5.51.69-7.12,2.05s-3.05,2.89-4.32,4.57c-1.26,1.68-2.55,3.19-3.86,4.57-1.31,1.36-3.22,2.05-5.76,2.05,2.16-.51,3.51-1.7,4.02-3.58.51-1.88.78-4.29.78-7.23v-5.77l-14.75-5.77v24.78c0,1.72.76,2.99,2.27,3.81,3.83,2.13,7.93,4.16,12.33,6.07,4.39,1.93,9,2.99,13.83,3.19v23.72c-3.84.41-7.01,1.43-9.55,3.12-2.53,1.66-4.52,3.47-5.99,5.4-1.47,1.93-2.75,4.41-3.86,7.46l-1.06-.6-20.46-7.9-1.2-.3c-.92-.3-1.68-.41-2.28-.3-.6.11-1.24.37-1.9.83s-1.13,1.35-1.45,2.66c-.11-1.22.05-2.34.46-3.35.3-.81.83-1.61,1.59-2.43s1.9-1.36,3.42-1.66v-7.9c0-1.82-.87-2.99-2.59-3.49,3.13,0,5.51-.69,7.12-2.05s3.05-2.89,4.32-4.57c1.26-1.66,2.55-3.22,3.86-4.64s3.22-2.13,5.76-2.13c-2,.51-3.28,1.7-3.83,3.58s-.81,4.29-.81,7.23v8.52l14.59,5.63.16-21.13c0-1.61-.46-3.12-1.36-4.48s-2.07-2.41-3.51-3.12c-1.63-.81-3.19-1.59-4.71-2.36-1.52-.76-2.99-1.49-4.41-2.2-2.94-1.61-5.63-3.01-8.06-4.18s-4.6-1.75-6.54-1.75v-22.19c3.84-.41,7.01-1.45,9.55-3.12,2.53-1.68,4.52-3.47,5.99-5.4,1.47-1.93,2.75-4.41,3.86-7.46l1.06.6,20.46,7.9,1.2.3c.9.3,1.66.43,2.28.37.6-.05,1.24-.34,1.9-.83.66-.51,1.13-1.42,1.45-2.73v-.07Z"/>
        <path class="cls-1" d="M617.03,88.36c0,1.12.32,2.13.99,3.05.66.9,1.54,1.52,2.66,1.82h.16c-2.53.71-3.81,2.34-3.81,4.87v26.14c-3.86.41-7.05,1.45-9.58,3.12-2.53,1.68-4.53,3.47-6,5.4-1.47,1.93-2.76,4.41-3.88,7.46l-1.06-.6-8.06-3.05v19.61l.6.6c.81.81,1.75,1.22,2.82,1.22s2-.35,2.82-1.06l1.22-1.06c0,.51-.57,1.31-1.68,2.43-1.12,1.12-2.37,2.37-3.81,3.81-1.42,1.42-2.78,2.9-4.11,4.48-1.31,1.58-2.18,3.12-2.59,4.64l-9.12-8.52v-31.47c-.21-.11-.55-.18-1.06-.23s-1.04,0-1.59.16c-.57.16-1.1.48-1.59.99s-.92,1.31-1.22,2.43c-.11-1.12.05-2.18.46-3.19.3-.81.83-1.65,1.59-2.51s1.9-1.45,3.42-1.75v-29.35c-.21-2.34-1.47-3.84-3.81-4.57h.16c1.12-.3,2-.92,2.66-1.82.66-.92.99-1.93.99-3.05v-22.81c-.71-.11-1.42-.35-2.13-.76-.6-.3-1.22-.66-1.82-1.06s-1.12-.96-1.52-1.68l8.06-12.17c1.82,2.53,3.98,4.69,6.46,6.46s4.39,2.66,5.7,2.66c.71-.92,1.47-1.93,2.28-3.05.81-1.12,1.58-2.16,2.28-3.12s1.58-2.05,2.59-3.28l19.16,8.96,1.22.46c.92.3,1.66.43,2.28.39s1.24-.34,1.9-.83c.66-.51,1.13-1.42,1.43-2.75.11,1.22-.05,2.34-.46,3.35-.3.81-.83,1.63-1.59,2.43-.76.81-1.9,1.36-3.42,1.66v25.15ZM603.2,127.43v-58.84l-14.75-6.23v59.3l14.75,5.77Z"/>
        <path class="cls-1" d="M656.56,116.18c3.13,0,5.53-.69,7.14-2.05s3.06-2.89,4.34-4.57c1.26-1.66,2.55-3.22,3.88-4.64,1.31-1.42,3.24-2.13,5.77-2.13-2.13.51-3.45,1.7-3.95,3.58-.51,1.88-.76,4.29-.76,7.23v11.1c-3.86.41-7.05,1.43-9.58,3.12-2.53,1.66-4.53,3.47-6,5.4s-2.76,4.41-3.88,7.46l-1.06-.6-20.53-7.9-1.22-.3c-.92-.3-1.68-.41-2.28-.3-.6.11-1.24.37-1.9.83s-1.13,1.35-1.45,2.66c-.11-1.22.05-2.34.46-3.35.3-.81.83-1.61,1.59-2.43s1.9-1.36,3.42-1.66v-29.05c0-2.53-1.28-4.16-3.81-4.87l.16-.16c1.12-.3,2-.92,2.66-1.82s.99-1.93.99-3.05v-22.35c3.84-.41,7.05-1.45,9.58-3.12,2.53-1.68,4.53-3.47,6-5.4,1.47-1.93,2.76-4.41,3.88-7.46l1.06.6,20.53,7.9,1.22.3c.92.3,1.66.43,2.28.37.6-.05,1.24-.34,1.9-.83.66-.51,1.13-1.42,1.43-2.73.11,1.22-.05,2.34-.46,3.35-.3.81-.83,1.65-1.59,2.51s-1.9,1.4-3.42,1.59v5.17c0,1.72.87,2.94,2.59,3.65-3.35,0-6.23,1.1-8.66,3.26-2.43,2.18-4.76,4.64-7,7.37s-4.53,5.3-6.93,7.69c-2.37,2.37-5.24,3.77-8.59,4.18v27.36l14.75,5.63v-8.06c0-1.82-.87-2.99-2.59-3.49h.02ZM644.39,63.12v29.79c1.61-.41,3.29-1.26,5.01-2.59,1.72-1.31,3.31-2.83,4.78-4.57,1.47-1.72,2.66-3.54,3.58-5.47s1.36-3.81,1.36-5.63v-5.77l-14.75-5.77.02.02Z"/>
        <path class="cls-1" d="M720.57,55.68c.81,0,1.82-.23,3.05-.69,1.22-.46,1.93-1.49,2.13-3.12-.11,2.75-.71,5.12-1.82,7.14-.92,1.82-2.3,3.47-4.18,4.94-1.88,1.47-4.48,2.2-7.83,2.2-1.42,0-2.8-.16-4.11-.46-1.31-.3-2.53-.66-3.65-1.06s-2.04-.78-2.75-1.13c-.71-.35-1.12-.58-1.22-.69v25.54c0,1.12.34,2.13.99,3.05.66.9,1.54,1.52,2.66,1.82-1.12.3-2,.94-2.66,1.9-.66.97-.99,2-.99,3.12v27.36l.6.6c.81.71,1.75,1.1,2.82,1.13,1.06.05,2-.28,2.82-.99l1.22-1.06c0,.51-.55,1.31-1.66,2.43s-2.41,2.39-3.88,3.81c-1.47,1.42-2.87,2.9-4.18,4.48s-2.18,3.12-2.59,4.64l-8.96-8.52v-33.9c0-1.12-.35-2.16-1.06-3.12-.71-.96-1.63-1.54-2.75-1.75v-.16c2.53-.71,3.81-2.32,3.81-4.87v-22.51c-.71-.19-1.42-.51-2.13-.92-.6-.3-1.22-.66-1.82-1.06s-1.12-.96-1.52-1.66l8.06-12.17c2.94,3.24,5.45,5.35,7.53,6.31,2.07.96,3.72,1.49,4.94,1.59.81-1.01,1.49-1.98,2.05-2.89.55-.92,1.04-1.77,1.43-2.59.41-.92.71-1.72.92-2.43,1.42,1.12,2.94,2.07,4.57,2.89,1.42.71,2.99,1.35,4.71,1.9s3.54.83,5.47.83l-.02.09Z"/>
        <polygon class="cls-1" points="68.36 179.69 62.07 188.53 68.4 197 74.84 188.51 68.36 179.69"/>
      </g>
    </g>
  </g>
</svg>