<svg width="250" height="250" viewBox="0 0 250 250" fill="none" xmlns="http://www.w3.org/2000/svg">
<rect width="250" height="250" rx="30" fill="#5C6CFF"/>
<circle cx="177.5" cy="98.9286" r="37.5" fill="white"/>
<circle cx="177.5" cy="98.9286" r="14.6429" fill="#030303"/>
<path d="M177.5 61.4286C198.211 61.4286 215 78.2179 215 98.9286C215 99.0479 214.996 99.167 214.995 99.286H140.005C140.004 99.167 140 99.0479 140 98.9286C140 78.2179 156.789 61.4286 177.5 61.4286Z" fill="#E4E4E4"/>
<circle cx="74.6429" cy="98.9286" r="37.5" fill="white"/>
<circle cx="74.6429" cy="98.9286" r="14.6429" fill="#030303"/>
<path d="M121 169.41C127.833 166.576 142.2 163.91 145 175.91C147.8 187.91 131.5 187.243 123 185.41C130.667 186.243 145.2 189.11 142 193.91C138.8 198.71 126.667 199.243 121 198.91" stroke="#06138B" stroke-width="3" stroke-linecap="round"/>
</svg>
