<svg width="250" height="250" viewBox="0 0 250 250" fill="none" xmlns="http://www.w3.org/2000/svg">
<rect width="250" height="250" rx="30" fill="#AFD238"/>
<circle cx="177.5" cy="103.5" r="37.5" fill="white"/>
<circle cx="171.5" cy="110.071" r="14.5" fill="#030303"/>
<circle cx="166" cy="101" r="7" fill="white"/>
<circle cx="169.5" cy="117.5" r="5.5" fill="white"/>
<circle cx="93.5" cy="103.5" r="53.5" fill="#85A124" stroke="#AFD238" stroke-width="6"/>
<path d="M141 122C109.8 98 61.8333 104.667 43 111C37.5 64 76.8333 53 94 52.5C150 58.5 147.667 104.333 141 122Z" fill="#98BA23"/>
<path d="M37.5 114C55.1667 105.833 101 96.2 143 123" stroke="#627B0F" stroke-width="4" stroke-linecap="round"/>
<path d="M206.5 172C120 245 50.5 154 50.5 154" stroke="#627B0F" stroke-width="6" stroke-linecap="round"/>
<path d="M44.8039 159.856C44.43 160.91 42.5605 155.991 41.0649 151.775C39.5693 147.559 64.471 147.278 57.8904 148.965C51.3098 150.651 45.1778 158.802 44.8039 159.856Z" fill="#627B0F"/>
<path d="M54.4997 107C51.833 107.333 34.9999 111.1 34.9999 113.5C34.8333 115.167 38.9999 117.5 50.5 111" stroke="#627B0F" stroke-width="2"/>
</svg>
